<svg width="30" height="30" viewBox="0 0 30 30" fill="none" xmlns="http://www.w3.org/2000/svg">
<g id="Image Icon" opacity="0.6">
<g id="Group">
<path id="Vector" d="M2.5 7.49995C2.5 6.17387 3.02678 4.9021 3.96447 3.96442C4.90215 3.02674 6.17392 2.49995 7.5 2.49995H22.5C23.8261 2.49995 25.0979 3.02674 26.0355 3.96442C26.9732 4.9021 27.5 6.17387 27.5 7.49995V22.5C27.5 23.826 26.9732 25.0978 26.0355 26.0355C25.0979 26.9732 23.8261 27.5 22.5 27.5H7.5C6.17392 27.5 4.90215 26.9732 3.96447 26.0355C3.02678 25.0978 2.5 23.826 2.5 22.5V7.49995Z" stroke="#A1ABC0" stroke-width="2" stroke-linecap="round" stroke-linejoin="round"/>
<path id="Vector_2" d="M10.625 13.75C12.3509 13.75 13.75 12.3509 13.75 10.625C13.75 8.89911 12.3509 7.5 10.625 7.5C8.89911 7.5 7.5 8.89911 7.5 10.625C7.5 12.3509 8.89911 13.75 10.625 13.75Z" stroke="#A1ABC0" stroke-width="2" stroke-linecap="round" stroke-linejoin="round"/>
<path id="Vector_3" d="M18.1575 15.7763L7.5 27.5H22.6662C23.9482 27.5 25.1777 26.9908 26.0842 26.0843C26.9907 25.1778 27.5 23.9483 27.5 22.6663V22.5C27.5 21.9175 27.2813 21.6938 26.8875 21.2625L21.85 15.7688C21.6152 15.5127 21.3296 15.3083 21.0115 15.1688C20.6933 15.0292 20.3495 14.9575 20.0021 14.9582C19.6547 14.9589 19.3112 15.032 18.9936 15.1728C18.676 15.3137 18.3912 15.5192 18.1575 15.7763V15.7763Z" stroke="#A1ABC0" stroke-width="2" stroke-linecap="round" stroke-linejoin="round"/>
</g>
</g>
</svg>
